<svg width="57" height="56" viewBox="0 0 57 56" fill="none" xmlns="http://www.w3.org/2000/svg">
<rect width="56" height="56" rx="8" transform="matrix(-1 0 0 1 56.5 0)" fill="white"/>
<g clip-path="url(#clip0_3061_128027)">
<path d="M10.6014 28C10.3256 28 10.0479 28.0903 9.81595 28.276C2.38565 34.2197 1.53057 39.4939 2.23302 43.0011C0.718319 45.0173 -0.136098 48.3638 1.0707 51.2294C1.3404 51.8699 2.07857 52.1709 2.71934 51.901C3.36012 51.6312 3.66074 50.8932 3.39104 50.2525C2.84783 48.9625 2.94953 47.4203 3.4041 46.1235C3.44875 46.2015 3.49273 46.2761 3.53606 46.3477C4.74319 48.3391 6.12775 48.8939 7.07675 49.0084C8.21857 49.1467 9.33723 48.7315 10.2287 47.8403C10.9819 47.087 11.4057 45.9604 11.3621 44.8265C11.3214 43.7658 10.8938 42.8342 10.1577 42.2036C10.1516 42.1983 10.1453 42.193 10.1391 42.1877C9.43611 41.5601 7.98144 40.5255 6.13668 40.6492C5.58289 40.6862 5.04977 40.823 4.53963 41.0584C4.51648 38.2563 6.00456 34.5491 11.3887 30.2421C11.9316 29.8079 12.0197 29.0157 11.5853 28.4729C11.3366 28.1617 10.9707 28 10.6014 28ZM9.81214 41.9926C9.81181 41.9925 9.81165 41.9925 9.81132 41.9923C9.81148 41.9925 9.81181 41.9925 9.81214 41.9926ZM5.03323 43.6978C5.4501 43.3693 5.87541 43.1892 6.30402 43.1606C7.26741 43.0957 8.13374 43.7721 8.46231 44.0656C8.48066 44.0819 8.50315 44.1021 8.53027 44.1244C8.71812 44.2928 8.83305 44.5826 8.84611 44.9227C8.86298 45.3619 8.71051 45.7976 8.44825 46.0598C8.21278 46.2953 7.83526 46.5646 7.37854 46.5089C6.82127 46.4416 6.22134 45.9208 5.68888 45.0424C5.45424 44.6554 5.22472 44.206 5.03323 43.6978Z" fill="#FF9999"/>
<path d="M21.3927 17.9688V11.2811L18.8848 10.171L16.377 11.2811V17.9688H21.3927Z" fill="#FFD8C2"/>
<path d="M21.3927 11.2812V9.60267C21.3927 8.68337 20.6466 7.93744 19.7274 7.93744H18.0422C17.1219 7.93744 16.377 8.68348 16.377 9.60267V11.2812H21.3927Z" fill="#282A52"/>
<path d="M43.1251 17.9688V11.2811L40.6172 10.615L38.1094 11.2811V17.9688H43.1251Z" fill="#FFD8C2"/>
<path d="M43.1251 11.2812V9.60267C43.1251 8.68337 42.379 7.93744 41.4599 7.93744H39.7746C38.8554 7.93744 38.1094 8.68348 38.1094 9.60267V11.2812H43.1251Z" fill="#282A52"/>
<path d="M48.1402 31.0012V26.3493C48.1402 20.7985 43.6397 16.2989 38.0899 16.2989C36.7099 16.2989 35.461 15.7394 34.5573 14.8358C33.6525 13.931 33.094 12.6832 33.094 11.3032C33.094 10.7796 32.7953 10.3018 32.3245 10.0725L31.6841 9.76073C30.9911 9.42325 30.1813 9.42325 29.4883 9.76073L28.8479 10.0725C28.3771 10.3018 28.0783 10.7796 28.0783 11.3032C28.0783 14.062 25.8414 16.2989 23.0826 16.2989H21.747C21.5107 16.2989 21.2748 16.3199 21.0421 16.3616L19.6956 16.6026C19.2546 16.6816 18.8035 16.6859 18.361 16.6154L16.3958 16.3021C16.3827 16.3 16.3694 16.2989 16.3561 16.2989C13.5962 16.2989 11.3604 14.062 11.3604 11.3032C11.3604 10.7765 11.0696 10.2928 10.6045 10.0456L10.0298 9.74019C9.29436 9.34933 8.41266 9.34932 7.6771 9.74005C6.85793 10.1752 6.34573 11.0271 6.34573 11.9547V13.2815C6.34573 15.8426 6.06486 18.396 5.50978 20.8961C5.23219 22.1461 5.02241 23.4095 4.88361 24.6806C4.74372 25.9517 4.67383 30.2307 4.67383 31.5107C4.67383 32.4734 4.79567 33.4074 5.02398 34.2992C5.02425 34.3002 5.02466 34.3012 5.02519 34.3022C5.02567 34.303 5.02607 34.3038 5.02637 34.3046L5.6484 36.0838C6.21015 37.3472 6.98744 38.4602 7.95213 39.4249C9.97709 41.4499 12.7758 42.7032 15.8665 42.7032H36.4368C42.9003 42.7034 48.1402 37.4646 48.1402 31.0012Z" fill="#FFCFB5"/>
<path d="M23.499 16.2818C26.0635 16.0706 28.0793 13.922 28.0793 11.3031V10.4472L30.5872 9.226L33.095 10.4472V11.3031C33.095 12.6831 33.6535 13.9309 34.5582 14.8357C35.462 15.7393 36.7109 16.2988 38.0908 16.2988C43.6406 16.2988 48.1412 20.7984 48.1412 26.3492V28.0011C48.1412 34.4645 42.9013 39.7033 36.4377 39.7031H23.499V16.2818Z" fill="#FFCFB5"/>
<path d="M11.3612 10.4453V8.76673C11.3612 7.84645 10.6151 7.1015 9.69596 7.1015H8.01191C7.09163 7.1015 6.34668 7.84645 6.34668 8.76673V10.4453H11.3612Z" fill="#282A52"/>
<path d="M33.0948 10.4453V8.76673C33.0948 7.84645 32.3488 7.1015 31.4296 7.1015H29.7443C28.8241 7.1015 28.0791 7.84645 28.0791 8.76673V10.4453H33.0948Z" fill="#282A52"/>
<path d="M23.6641 38.2868C21.9193 38.2868 20.5 39.7285 20.5 41.5007C20.5 41.9945 20.6154 42.48 20.8419 42.9434L22.9524 47.2297C23.836 49.0215 26.1007 49.5129 27.5564 48.4287L32.4549 45.1133C33.1277 44.6569 33.0661 43.627 32.3375 43.2615C30.5381 42.3576 28.9334 41.0383 27.6985 39.4449C27.5542 39.2588 27.3524 39.1269 27.1258 39.0693L24.4262 38.3841C24.1502 38.3004 23.8278 38.2868 23.6641 38.2868Z" fill="#FF9999"/>
<path d="M53.338 38.2903C53.0795 38.2903 52.8209 38.3238 52.5696 38.3887L49.8567 39.0718C49.626 39.1304 49.422 39.2654 49.2768 39.4558C48.0687 41.0387 46.4743 42.3558 44.6646 43.265C43.9412 43.6279 43.8695 44.6571 44.5472 45.1168L49.4838 48.4594C50.932 49.4711 53.1938 48.9103 54.0579 47.2563L56.1797 42.948C56.3939 42.5118 56.5021 42.0264 56.5021 41.5043C56.5021 39.732 55.0828 38.2903 53.338 38.2903Z" fill="#FF7575"/>
<path d="M38.5 18.9986C28.0026 18.9986 22.6094 22.9638 22.6094 30.7831C22.6094 37.2619 26.347 42.6395 31.4022 45.1778C35.6622 47.3665 41.3296 47.3706 45.6061 45.1736C50.4794 42.7266 54.3906 37.4308 54.3906 30.7831C54.3906 22.9638 48.9974 18.9986 38.5 18.9986Z" fill="#FFD8C2"/>
<path d="M38.5002 19.0026C48.9976 19.0026 54.3908 22.9677 54.3908 30.787C54.3908 37.4347 50.4796 42.7305 45.6061 45.1775C43.4679 46.276 40.9468 46.8242 38.498 46.8242V19.0026H38.5002Z" fill="#FFCFB5"/>
<path d="M38.5 22.2869C34.3606 22.2869 31.1172 24.6398 31.1172 27.6434C31.1172 30.6471 34.3606 33 38.5 33C42.6394 33 45.8828 30.6471 45.8828 27.6434C45.8828 24.6398 42.6394 22.2869 38.5 22.2869Z" fill="#FF9999"/>
<path d="M38.498 32.9999V22.287C38.4987 22.287 38.4995 22.2869 38.5001 22.2869C42.6395 22.2869 45.8829 24.6398 45.8829 27.6434C45.8829 30.6471 42.6395 33 38.5001 33C38.4995 33 38.4987 32.9999 38.498 32.9999Z" fill="#FF7575"/>
<path d="M35.6875 25.484C36.5159 25.484 37.1875 26.1661 37.1875 27.0076C37.1875 27.8491 36.5159 28.5312 35.6875 28.5312C34.8591 28.5312 34.1875 27.8491 34.1875 27.0076C34.1875 26.1661 34.8591 25.484 35.6875 25.484Z" fill="#282A52"/>
<path d="M41.3125 25.484C42.1409 25.484 42.8125 26.1661 42.8125 27.0076C42.8125 27.8491 42.1409 28.5312 41.3125 28.5312C40.4841 28.5312 39.8125 27.8491 39.8125 27.0076C39.8125 26.1661 40.4841 25.484 41.3125 25.484Z" fill="#1E203E"/>
<path fill-rule="evenodd" clip-rule="evenodd" d="M29.9393 35.9393C30.5251 35.3536 31.4749 35.3536 32.0607 35.9393L35.0607 38.9393C35.6464 39.5251 35.6464 40.4749 35.0607 41.0607C34.4749 41.6464 33.5251 41.6464 32.9393 41.0607L29.9393 38.0607C29.3536 37.4749 29.3536 36.5251 29.9393 35.9393Z" fill="#282A52"/>
<path fill-rule="evenodd" clip-rule="evenodd" d="M41.9393 35.9393C42.5251 35.3536 43.4749 35.3536 44.0607 35.9393L47.0607 38.9393C47.6464 39.5251 47.6464 40.4749 47.0607 41.0607C46.4749 41.6464 45.5251 41.6464 44.9393 41.0607L41.9393 38.0607C41.3536 37.4749 41.3536 36.5251 41.9393 35.9393Z" fill="#282A52"/>
<path fill-rule="evenodd" clip-rule="evenodd" d="M35.0607 35.9393C34.4749 35.3536 33.5251 35.3536 32.9393 35.9393L29.9393 38.9393C29.3536 39.5251 29.3536 40.4749 29.9393 41.0607C30.5251 41.6464 31.4749 41.6464 32.0607 41.0607L35.0607 38.0607C35.6464 37.4749 35.6464 36.5251 35.0607 35.9393Z" fill="#282A52"/>
<path fill-rule="evenodd" clip-rule="evenodd" d="M47.0607 35.9393C46.4749 35.3536 45.5251 35.3536 44.9393 35.9393L41.9393 38.9393C41.3536 39.5251 41.3536 40.4749 41.9393 41.0607C42.5251 41.6464 43.4749 41.6464 44.0607 41.0607L47.0607 38.0607C47.6464 37.4749 47.6464 36.5251 47.0607 35.9393Z" fill="#282A52"/>
</g>
<defs>
<clipPath id="clip0_3061_128027">
<rect width="56" height="56" fill="white" transform="matrix(1 0 0 -1 0.5 56)"/>
</clipPath>
</defs>
</svg>
